# Blender 3.5.0
# www.blender.org
mtllib scaffolding.mtl
o 立方体.005
v 1.000000 0.750000 -1.000000
v 1.000000 0.850000 -1.000000
v 1.000000 0.750000 1.000000
v 1.000000 0.850000 1.000000
v -1.000000 0.750000 -1.000000
v -1.000000 0.850000 -1.000000
v -1.000000 0.750000 1.000000
v -1.000000 0.850000 1.000000
v -0.830000 -1.000000 0.970000
v -0.830000 -1.000000 0.830000
v -0.830000 0.822195 0.970000
v -0.830000 0.822195 0.830000
v -0.970000 -1.000000 0.970000
v -0.970000 -1.000000 0.830000
v -0.970000 0.822195 0.970000
v -0.970000 0.822195 0.830000
v 0.970000 -1.000000 0.970000
v 0.970000 -1.000000 0.830000
v 0.970000 0.811168 0.970000
v 0.970000 0.811168 0.830000
v 0.830000 -1.000000 0.970000
v 0.830000 -1.000000 0.830000
v 0.830000 0.811168 0.970000
v 0.830000 0.811168 0.830000
v -0.830000 -1.000000 -0.830000
v -0.830000 -1.000000 -0.970000
v -0.830000 0.811168 -0.830000
v -0.830000 0.811168 -0.970000
v -0.970000 -1.000000 -0.830000
v -0.970000 -1.000000 -0.970000
v -0.970000 0.811168 -0.830000
v -0.970000 0.811168 -0.970000
v 0.970000 -1.000000 -0.830000
v 0.970000 -1.000000 -0.970000
v 0.970000 0.811168 -0.830000
v 0.970000 0.811168 -0.970000
v 0.830000 -1.000000 -0.830000
v 0.830000 -1.000000 -0.970000
v 0.830000 0.811168 -0.830000
v 0.830000 0.811168 -0.970000
v -0.810510 -0.875369 -0.850000
v -0.810510 -0.875369 -0.950000
v 0.874788 0.538764 -0.850000
v 0.874788 0.538764 -0.950000
v -0.874788 -0.798764 -0.850000
v -0.874788 -0.798764 -0.950000
v 0.810510 0.615369 -0.850000
v 0.810510 0.615369 -0.950000
v 0.874788 -0.798764 0.950000
v 0.874788 -0.798764 0.850000
v -0.810510 0.615369 0.950000
v -0.810510 0.615369 0.850000
v 0.810510 -0.875369 0.950000
v 0.810510 -0.875369 0.850000
v -0.874788 0.538764 0.950000
v -0.874788 0.538764 0.850000
v 0.850000 0.615369 0.810510
v 0.950000 0.615369 0.810510
v 0.850000 -0.798764 -0.874788
v 0.950000 -0.798764 -0.874788
v 0.850000 0.538764 0.874788
v 0.950000 0.538764 0.874788
v 0.850000 -0.875369 -0.810510
v 0.950000 -0.875369 -0.810510
v 0.874788 -0.798764 0.950000
v 0.874788 -0.798764 0.850000
v -0.810510 0.615369 0.950000
v -0.810510 0.615369 0.850000
v 0.810510 -0.875369 0.950000
v 0.810510 -0.875369 0.850000
v -0.874788 0.538764 0.950000
v -0.874788 0.538764 0.850000
v 0.950000 0.615369 -0.810510
v 0.850000 0.615369 -0.810510
v 0.950000 -0.798764 0.874788
v 0.850000 -0.798764 0.874788
v 0.950000 0.538764 -0.874788
v 0.850000 0.538764 -0.874788
v 0.950000 -0.875369 0.810510
v 0.850000 -0.875369 0.810510
v -0.850000 0.615369 -0.810510
v -0.950000 0.615369 -0.810510
v -0.850000 -0.798764 0.874788
v -0.950000 -0.798764 0.874788
v -0.850000 0.538764 -0.874788
v -0.950000 0.538764 -0.874788
v -0.850000 -0.875369 0.810510
v -0.950000 -0.875369 0.810510
v -0.950000 0.615369 0.810510
v -0.850000 0.615369 0.810510
v -0.950000 -0.798764 -0.874788
v -0.850000 -0.798764 -0.874788
v -0.950000 0.538764 0.874788
v -0.850000 0.538764 0.874788
v -0.950000 -0.875369 -0.810510
v -0.850000 -0.875369 -0.810510
v 0.874788 -0.798764 -0.850000
v 0.874788 -0.798764 -0.950000
v -0.810510 0.615369 -0.850000
v -0.810510 0.615369 -0.950000
v 0.810510 -0.875369 -0.850000
v 0.810510 -0.875369 -0.950000
v -0.874788 0.538764 -0.850000
v -0.874788 0.538764 -0.950000
v -0.810510 -0.875369 0.950000
v -0.810510 -0.875369 0.850000
v 0.874788 0.538764 0.950000
v 0.874788 0.538764 0.850000
v -0.874788 -0.798764 0.950000
v -0.874788 -0.798764 0.850000
v 0.810510 0.615369 0.950000
v 0.810510 0.615369 0.850000
vn 1.0000 -0.0000 -0.0000
vn -0.0000 -0.0000 1.0000
vn -1.0000 -0.0000 -0.0000
vn -0.0000 -0.0000 -1.0000
vn -0.0000 -1.0000 -0.0000
vn -0.0000 1.0000 -0.0000
vn 0.6428 -0.7660 -0.0000
vn 0.7660 0.6428 -0.0000
vn -0.6428 0.7660 -0.0000
vn -0.7660 -0.6428 -0.0000
vn 0.6428 0.7660 -0.0000
vn -0.7660 0.6428 -0.0000
vn -0.6428 -0.7660 -0.0000
vn 0.7660 -0.6428 -0.0000
vn -0.0000 0.7660 -0.6428
vn -0.0000 -0.6428 -0.7660
vn -0.0000 -0.7660 0.6428
vn -0.0000 0.6428 0.7660
vn -0.0000 0.7660 0.6428
vn -0.0000 -0.6428 0.7660
vn -0.0000 -0.7660 -0.6428
vn -0.0000 0.6428 -0.7660
vt 0.375000 0.000000
vt 0.375000 1.000000
vt 0.125000 0.750000
vt 0.625000 0.000000
vt 0.625000 1.000000
vt 0.875000 0.750000
vt 0.125000 0.500000
vt 0.375000 0.250000
vt 0.625000 0.250000
vt 0.875000 0.500000
vt 0.375000 0.750000
vt 0.625000 0.750000
vt 0.375000 0.500000
vt 0.625000 0.500000
vt 0.375000 0.000000
vt 0.375000 1.000000
vt 0.125000 0.750000
vt 0.625000 0.000000
vt 0.625000 1.000000
vt 0.875000 0.750000
vt 0.375000 0.250000
vt 0.125000 0.500000
vt 0.625000 0.250000
vt 0.875000 0.500000
vt 0.375000 0.750000
vt 0.625000 0.750000
vt 0.375000 0.500000
vt 0.625000 0.500000
vt 0.375000 0.000000
vt 0.375000 1.000000
vt 0.125000 0.750000
vt 0.625000 0.000000
vt 0.625000 1.000000
vt 0.875000 0.750000
vt 0.125000 0.500000
vt 0.375000 0.250000
vt 0.625000 0.250000
vt 0.875000 0.500000
vt 0.375000 0.750000
vt 0.625000 0.750000
vt 0.375000 0.500000
vt 0.625000 0.500000
vt 0.375000 0.000000
vt 0.375000 1.000000
vt 0.125000 0.750000
vt 0.625000 0.000000
vt 0.625000 1.000000
vt 0.875000 0.750000
vt 0.125000 0.500000
vt 0.375000 0.250000
vt 0.625000 0.250000
vt 0.875000 0.500000
vt 0.375000 0.750000
vt 0.625000 0.750000
vt 0.375000 0.500000
vt 0.625000 0.500000
vt 0.375000 0.000000
vt 0.375000 1.000000
vt 0.125000 0.750000
vt 0.625000 0.000000
vt 0.625000 1.000000
vt 0.875000 0.750000
vt 0.125000 0.500000
vt 0.375000 0.250000
vt 0.625000 0.250000
vt 0.875000 0.500000
vt 0.375000 0.750000
vt 0.625000 0.750000
vt 0.375000 0.500000
vt 0.625000 0.500000
vt 0.375000 0.000000
vt 0.375000 1.000000
vt 0.125000 0.750000
vt 0.625000 0.000000
vt 0.625000 1.000000
vt 0.875000 0.750000
vt 0.125000 0.500000
vt 0.375000 0.250000
vt 0.625000 0.250000
vt 0.875000 0.500000
vt 0.375000 0.750000
vt 0.625000 0.750000
vt 0.375000 0.500000
vt 0.625000 0.500000
vt 0.375000 0.000000
vt 0.125000 0.750000
vt 0.375000 1.000000
vt 0.625000 0.000000
vt 0.625000 1.000000
vt 0.875000 0.750000
vt 0.375000 0.250000
vt 0.125000 0.500000
vt 0.625000 0.250000
vt 0.875000 0.500000
vt 0.375000 0.750000
vt 0.625000 0.750000
vt 0.375000 0.500000
vt 0.625000 0.500000
vt 0.375000 0.000000
vt 0.125000 0.750000
vt 0.375000 1.000000
vt 0.625000 0.000000
vt 0.625000 1.000000
vt 0.875000 0.750000
vt 0.375000 0.250000
vt 0.125000 0.500000
vt 0.625000 0.250000
vt 0.875000 0.500000
vt 0.375000 0.750000
vt 0.625000 0.750000
vt 0.375000 0.500000
vt 0.625000 0.500000
vt 0.375000 0.000000
vt 0.125000 0.750000
vt 0.375000 1.000000
vt 0.625000 0.000000
vt 0.625000 1.000000
vt 0.875000 0.750000
vt 0.375000 0.250000
vt 0.125000 0.500000
vt 0.625000 0.250000
vt 0.875000 0.500000
vt 0.375000 0.750000
vt 0.625000 0.750000
vt 0.375000 0.500000
vt 0.625000 0.500000
vt 0.375000 0.000000
vt 0.375000 1.000000
vt 0.125000 0.750000
vt 0.625000 0.000000
vt 0.625000 1.000000
vt 0.875000 0.750000
vt 0.125000 0.500000
vt 0.375000 0.250000
vt 0.625000 0.250000
vt 0.875000 0.500000
vt 0.375000 0.750000
vt 0.625000 0.750000
vt 0.375000 0.500000
vt 0.625000 0.500000
vt 0.375000 0.000000
vt 0.375000 1.000000
vt 0.125000 0.750000
vt 0.625000 0.000000
vt 0.625000 1.000000
vt 0.875000 0.750000
vt 0.125000 0.500000
vt 0.375000 0.250000
vt 0.625000 0.250000
vt 0.875000 0.500000
vt 0.375000 0.750000
vt 0.625000 0.750000
vt 0.375000 0.500000
vt 0.625000 0.500000
vt 0.375000 0.000000
vt 0.375000 1.000000
vt 0.125000 0.750000
vt 0.625000 0.000000
vt 0.625000 1.000000
vt 0.875000 0.750000
vt 0.125000 0.500000
vt 0.375000 0.250000
vt 0.625000 0.250000
vt 0.875000 0.500000
vt 0.375000 0.750000
vt 0.625000 0.750000
vt 0.375000 0.500000
vt 0.625000 0.500000
vt 0.375000 0.000000
vt 0.125000 0.750000
vt 0.375000 1.000000
vt 0.625000 0.000000
vt 0.625000 1.000000
vt 0.875000 0.750000
vt 0.375000 0.250000
vt 0.125000 0.500000
vt 0.625000 0.250000
vt 0.875000 0.500000
vt 0.375000 0.750000
vt 0.625000 0.750000
vt 0.375000 0.500000
vt 0.625000 0.500000
vt 0.375000 0.000000
vt 0.375000 1.000000
vt 0.125000 0.750000
vt 0.625000 0.000000
vt 0.625000 1.000000
vt 0.875000 0.750000
vt 0.125000 0.500000
vt 0.375000 0.250000
vt 0.625000 0.250000
vt 0.875000 0.500000
vt 0.375000 0.750000
vt 0.625000 0.750000
vt 0.375000 0.500000
vt 0.625000 0.500000
s 0
f 2/4/1 3/8/1 1/1/1
f 4/9/2 7/13/2 3/8/2
f 8/14/3 5/11/3 7/13/3
f 6/12/4 1/2/4 5/11/4
f 7/13/5 1/3/5 3/7/5
f 4/10/6 6/12/6 8/14/6
f 9/15/1 12/23/1 11/21/1
f 12/23/6 15/27/6 11/21/6
f 16/28/3 13/25/3 15/27/3
f 14/26/5 9/16/5 13/25/5
f 15/27/2 9/17/2 11/22/2
f 12/24/4 14/26/4 16/28/4
f 18/32/1 19/36/1 17/29/1
f 20/37/6 23/41/6 19/36/6
f 24/42/3 21/39/3 23/41/3
f 22/40/5 17/30/5 21/39/5
f 23/41/2 17/31/2 19/35/2
f 20/38/4 22/40/4 24/42/4
f 26/46/1 27/50/1 25/43/1
f 28/51/6 31/55/6 27/50/6
f 32/56/3 29/53/3 31/55/3
f 30/54/5 25/44/5 29/53/5
f 31/55/2 25/45/2 27/49/2
f 28/52/4 30/54/4 32/56/4
f 34/60/1 35/64/1 33/57/1
f 36/65/6 39/69/6 35/64/6
f 40/70/3 37/67/3 39/69/3
f 38/68/5 33/58/5 37/67/5
f 39/69/2 33/59/2 35/63/2
f 36/66/4 38/68/4 40/70/4
f 42/74/7 43/78/7 41/71/7
f 44/79/8 47/83/8 43/78/8
f 48/84/9 45/81/9 47/83/9
f 46/82/10 41/72/10 45/81/10
f 47/83/2 41/73/2 43/77/2
f 48/84/4 42/76/4 46/82/4
f 50/88/11 51/91/11 49/85/11
f 52/93/12 55/97/12 51/91/12
f 56/98/13 53/95/13 55/97/13
f 54/96/14 49/87/14 53/95/14
f 51/92/2 53/95/2 49/86/2
f 52/94/4 54/96/4 56/98/4
f 58/102/15 59/105/15 57/99/15
f 60/107/16 63/111/16 59/105/16
f 64/112/17 61/109/17 63/111/17
f 62/110/18 57/101/18 61/109/18
f 59/106/3 61/109/3 57/100/3
f 64/112/1 58/104/1 62/110/1
f 66/116/11 67/119/11 65/113/11
f 68/121/12 71/125/12 67/119/12
f 72/126/13 69/123/13 71/125/13
f 70/124/14 65/115/14 69/123/14
f 67/120/2 69/123/2 65/114/2
f 68/122/4 70/124/4 72/126/4
f 74/130/19 75/134/19 73/127/19
f 76/135/20 79/139/20 75/134/20
f 80/140/21 77/137/21 79/139/21
f 78/138/22 73/128/22 77/137/22
f 79/139/1 73/129/1 75/133/1
f 80/140/3 74/132/3 78/138/3
f 82/144/19 83/148/19 81/141/19
f 84/149/20 87/153/20 83/148/20
f 88/154/21 85/151/21 87/153/21
f 86/152/22 81/142/22 85/151/22
f 87/153/1 81/143/1 83/147/1
f 88/154/3 82/146/3 86/152/3
f 90/158/15 91/162/15 89/155/15
f 92/163/16 95/167/16 91/162/16
f 96/168/17 93/165/17 95/167/17
f 94/166/18 89/156/18 93/165/18
f 95/167/3 89/157/3 91/161/3
f 96/168/1 90/160/1 94/166/1
f 98/172/11 99/175/11 97/169/11
f 100/177/12 103/181/12 99/175/12
f 104/182/13 101/179/13 103/181/13
f 102/180/14 97/171/14 101/179/14
f 99/176/2 101/179/2 97/170/2
f 100/178/4 102/180/4 104/182/4
f 106/186/7 107/190/7 105/183/7
f 108/191/8 111/195/8 107/190/8
f 112/196/9 109/193/9 111/195/9
f 110/194/10 105/184/10 109/193/10
f 111/195/2 105/185/2 107/189/2
f 112/196/4 106/188/4 110/194/4
f 2/4/1 4/9/1 3/8/1
f 4/9/2 8/14/2 7/13/2
f 8/14/3 6/12/3 5/11/3
f 6/12/4 2/5/4 1/2/4
f 7/13/5 5/11/5 1/3/5
f 4/10/6 2/6/6 6/12/6
f 9/15/1 10/18/1 12/23/1
f 12/23/6 16/28/6 15/27/6
f 16/28/3 14/26/3 13/25/3
f 14/26/5 10/19/5 9/16/5
f 15/27/2 13/25/2 9/17/2
f 12/24/4 10/20/4 14/26/4
f 18/32/1 20/37/1 19/36/1
f 20/37/6 24/42/6 23/41/6
f 24/42/3 22/40/3 21/39/3
f 22/40/5 18/33/5 17/30/5
f 23/41/2 21/39/2 17/31/2
f 20/38/4 18/34/4 22/40/4
f 26/46/1 28/51/1 27/50/1
f 28/51/6 32/56/6 31/55/6
f 32/56/3 30/54/3 29/53/3
f 30/54/5 26/47/5 25/44/5
f 31/55/2 29/53/2 25/45/2
f 28/52/4 26/48/4 30/54/4
f 34/60/1 36/65/1 35/64/1
f 36/65/6 40/70/6 39/69/6
f 40/70/3 38/68/3 37/67/3
f 38/68/5 34/61/5 33/58/5
f 39/69/2 37/67/2 33/59/2
f 36/66/4 34/62/4 38/68/4
f 42/74/7 44/79/7 43/78/7
f 44/79/8 48/84/8 47/83/8
f 48/84/9 46/82/9 45/81/9
f 46/82/10 42/75/10 41/72/10
f 47/83/2 45/81/2 41/73/2
f 48/84/4 44/80/4 42/76/4
f 50/88/11 52/93/11 51/91/11
f 52/93/12 56/98/12 55/97/12
f 56/98/13 54/96/13 53/95/13
f 54/96/14 50/89/14 49/87/14
f 51/92/2 55/97/2 53/95/2
f 52/94/4 50/90/4 54/96/4
f 58/102/15 60/107/15 59/105/15
f 60/107/16 64/112/16 63/111/16
f 64/112/17 62/110/17 61/109/17
f 62/110/18 58/103/18 57/101/18
f 59/106/3 63/111/3 61/109/3
f 64/112/1 60/108/1 58/104/1
f 66/116/11 68/121/11 67/119/11
f 68/121/12 72/126/12 71/125/12
f 72/126/13 70/124/13 69/123/13
f 70/124/14 66/117/14 65/115/14
f 67/120/2 71/125/2 69/123/2
f 68/122/4 66/118/4 70/124/4
f 74/130/19 76/135/19 75/134/19
f 76/135/20 80/140/20 79/139/20
f 80/140/21 78/138/21 77/137/21
f 78/138/22 74/131/22 73/128/22
f 79/139/1 77/137/1 73/129/1
f 80/140/3 76/136/3 74/132/3
f 82/144/19 84/149/19 83/148/19
f 84/149/20 88/154/20 87/153/20
f 88/154/21 86/152/21 85/151/21
f 86/152/22 82/145/22 81/142/22
f 87/153/1 85/151/1 81/143/1
f 88/154/3 84/150/3 82/146/3
f 90/158/15 92/163/15 91/162/15
f 92/163/16 96/168/16 95/167/16
f 96/168/17 94/166/17 93/165/17
f 94/166/18 90/159/18 89/156/18
f 95/167/3 93/165/3 89/157/3
f 96/168/1 92/164/1 90/160/1
f 98/172/11 100/177/11 99/175/11
f 100/177/12 104/182/12 103/181/12
f 104/182/13 102/180/13 101/179/13
f 102/180/14 98/173/14 97/171/14
f 99/176/2 103/181/2 101/179/2
f 100/178/4 98/174/4 102/180/4
f 106/186/7 108/191/7 107/190/7
f 108/191/8 112/196/8 111/195/8
f 112/196/9 110/194/9 109/193/9
f 110/194/10 106/187/10 105/184/10
f 111/195/2 109/193/2 105/185/2
f 112/196/4 108/192/4 106/188/4
